<?xml version="1.0"?>
<svg xmlns="http://www.w3.org/2000/svg" xmlns:xlink="http://www.w3.org/1999/xlink" version="1.1" viewBox="0 0 223 223" width="100px" height="100px"><g fill="none" fill-rule="nonzero" stroke="none" stroke-width="1" stroke-linecap="butt" stroke-linejoin="miter" stroke-miterlimit="10" stroke-dasharray="" stroke-dashoffset="0" font-family="none" font-weight="none" font-size="none" text-anchor="none" style="mix-blend-mode: normal"><path d="M0,223.99731v-223.99731h223.99731v223.99731z" fill="none"/><g fill="#80c95c"><g id="surface1"><path d="M42.07383,35.68c-2.35195,0 -4.28578,0.80141 -5.94086,2.45648c-8.18828,8.13602 -16.39399,16.23719 -24.63453,24.32094c-1.74219,1.70735 -2.57844,3.69344 -2.57844,6.08024c0.03485,35.85422 0.03485,107.10969 0.03485,113.79969l0.31359,4.96523h4.46c6.56805,0 113.4861,-0.01742 167.12805,0.01742c2.42164,0 4.44258,-0.83625 6.21961,-2.57844c8.10117,-8.08375 16.23719,-16.11523 24.40805,-24.11187c1.74219,-1.74219 2.59586,-3.76313 2.59586,-6.23703c-0.03484,-37.33508 0,-114.25266 0,-114.25266v-4.46zM85.15813,62.44c4.19867,0.01742 8.3625,0.36586 12.49148,1.4286c8.37993,2.14289 14.3382,7.05586 17.84,14.8957c2.05578,4.6168 3.25789,9.46008 3.95477,14.42531c0.73172,5.3311 1.06273,10.71445 0.94078,16.08039c-0.1568,6.96875 -0.64461,13.88523 -2.57844,20.6275c-1.35891,4.72133 -3.43211,9.0768 -6.88164,12.6657c-1.30664,1.37633 -2.82235,2.56102 -4.32063,3.91992c3.46695,5.52273 6.96875,11.11516 10.60992,16.89922c-4.40773,2.03836 -8.71094,4.02445 -13.2232,6.09765c-3.79797,-6.14992 -7.56109,-12.24758 -11.28938,-18.25812c-7.42172,1.01047 -14.63437,0.78398 -21.7425,-1.08015c-8.18828,-2.14289 -14.00719,-7.0036 -17.31734,-14.73891c-1.84672,-4.3032 -2.92688,-8.7632 -3.60633,-13.34515c-0.73172,-4.89555 -1.02789,-9.84336 -0.97563,-14.79118c0.08711,-7.33461 0.52266,-14.6518 2.6307,-21.75992c0.76656,-2.59586 1.74219,-5.15687 2.87461,-7.61336c3.25789,-7.05586 8.85031,-11.48102 16.30687,-13.6936c3.29273,-0.9582 6.63773,-1.5157 10.05242,-1.6725c1.41118,-0.05226 2.82235,-0.08711 4.23352,-0.08711zM138.26,71.36h13.38v17.84h17.84v13.38h-17.84c0,0 -0.05227,13.86781 0,22.3c0.01742,2.36938 0.08711,6.01055 0.27875,8.3625c0.03485,0.62719 0.20906,1.23695 0.36586,1.86414c0.41813,1.49828 1.41118,2.49133 2.90945,2.80492c1.18469,0.24391 2.40422,0.36586 3.60633,0.34844c2.7875,-0.05227 6.30672,-0.48781 9.09422,-0.59234c0.26133,-0.01743 0.50524,0.05226 0.97562,0.08711c0.29618,3.5018 0.48781,8.37992 0.60977,12.02109c-1.2718,0.24391 -2.45648,0.47039 -3.62375,0.67945c-4.16383,0.74914 -9.09422,1.41117 -13.31031,1.04531c-2.21258,-0.20906 -4.37289,-0.66203 -6.42867,-1.53312c-2.70039,-1.16727 -4.6168,-3.06625 -5.76664,-5.78406c-1.37633,-3.1882 -2.09063,-6.95133 -2.09063,-10.38344v-31.22h-8.92v-13.38h8.92zM84.72258,75.90711c-2.64813,0 -5.29625,0.3136 -7.92695,0.9582c-4.66906,1.16727 -8.17086,3.64117 -10.24406,7.59594c-0.50523,0.94078 -0.97563,1.91641 -1.34148,2.90945c-1.84672,4.79102 -2.57844,9.77367 -2.71781,14.80859c-0.12195,4.65164 -0.01742,9.3207 0.22648,13.97235c0.24391,4.1464 1.09758,8.2057 2.70039,12.14305c1.98609,4.8607 5.76664,7.90953 11.37648,9.16391c5.34852,1.20211 10.71445,1.18469 16.04555,-0.03485c5.24399,-1.21953 8.97227,-4.02445 10.85383,-8.62383c0.48781,-1.16726 0.92336,-2.36937 1.2718,-3.5889c1.65508,-5.7318 1.8293,-11.58555 2.0732,-19.12922c-0.26133,-2.71781 -0.52265,-7.10813 -1.08015,-11.46359c-0.45297,-3.60633 -1.48086,-7.10813 -3.29274,-10.38344c-2.10805,-3.81539 -5.48789,-6.25445 -10.035,-7.36945c-2.6307,-0.64461 -5.27882,-0.9582 -7.90953,-0.9582z"/></g></g></g></svg>
